<?xml version="1.0" encoding="UTF-8" standalone="no"?>
<!DOCTYPE svg PUBLIC "-//W3C//DTD SVG 1.1//EN"
 "http://www.w3.org/Graphics/SVG/1.1/DTD/svg11.dtd">
<!-- Generated by graphviz version 2.40.1 (20161225.0304)
 -->
<!-- Title: %3 Pages: 1 -->
<svg width="893pt" height="548pt"
 viewBox="0.00 0.00 893.13 548.00" xmlns="http://www.w3.org/2000/svg" xmlns:xlink="http://www.w3.org/1999/xlink">
<g id="graph0" class="graph" transform="scale(1 1) rotate(0) translate(4 544)">
<title>%3</title>
<polygon fill="#ffffff" stroke="transparent" points="-4,4 -4,-544 889.1267,-544 889.1267,4 -4,4"/>
<!-- [root] azurerm_network_interface.myterraformnic -->
<g id="node1" class="node">
<title>[root] azurerm_network_interface.myterraformnic</title>
<polygon fill="none" stroke="#000000" points="429.7412,-324 167.6631,-324 167.6631,-288 429.7412,-288 429.7412,-324"/>
<text text-anchor="middle" x="298.7021" y="-301.8" font-family="Times,serif" font-size="14.00" fill="#000000">azurerm_network_interface.myterraformnic</text>
</g>
<!-- [root] azurerm_network_security_group.myterraformnsg -->
<g id="node2" class="node">
<title>[root] azurerm_network_security_group.myterraformnsg</title>
<polygon fill="none" stroke="#000000" points="299.6067,-180 -.2024,-180 -.2024,-144 299.6067,-144 299.6067,-180"/>
<text text-anchor="middle" x="149.7021" y="-157.8" font-family="Times,serif" font-size="14.00" fill="#000000">azurerm_network_security_group.myterraformnsg</text>
</g>
<!-- [root] azurerm_network_interface.myterraformnic&#45;&gt;[root] azurerm_network_security_group.myterraformnsg -->
<g id="edge1" class="edge">
<title>[root] azurerm_network_interface.myterraformnic&#45;&gt;[root] azurerm_network_security_group.myterraformnsg</title>
<path fill="none" stroke="#000000" d="M221.2897,-287.8647C201.6413,-279.8414 182.2784,-268.3633 168.7021,-252 154.5063,-234.8899 150.1314,-209.7726 149.094,-190.4173"/>
<polygon fill="#000000" stroke="#000000" points="152.5907,-190.2457 148.8199,-180.3446 145.5933,-190.4362 152.5907,-190.2457"/>
</g>
<!-- [root] azurerm_public_ip.myterraformpublicip -->
<g id="node3" class="node">
<title>[root] azurerm_public_ip.myterraformpublicip</title>
<polygon fill="none" stroke="#000000" points="419.5684,-252 177.8359,-252 177.8359,-216 419.5684,-216 419.5684,-252"/>
<text text-anchor="middle" x="298.7021" y="-229.8" font-family="Times,serif" font-size="14.00" fill="#000000">azurerm_public_ip.myterraformpublicip</text>
</g>
<!-- [root] azurerm_network_interface.myterraformnic&#45;&gt;[root] azurerm_public_ip.myterraformpublicip -->
<g id="edge2" class="edge">
<title>[root] azurerm_network_interface.myterraformnic&#45;&gt;[root] azurerm_public_ip.myterraformpublicip</title>
<path fill="none" stroke="#000000" d="M298.7021,-287.8314C298.7021,-280.131 298.7021,-270.9743 298.7021,-262.4166"/>
<polygon fill="#000000" stroke="#000000" points="302.2022,-262.4132 298.7021,-252.4133 295.2022,-262.4133 302.2022,-262.4132"/>
</g>
<!-- [root] azurerm_subnet.myterraformsubnet -->
<g id="node6" class="node">
<title>[root] azurerm_subnet.myterraformsubnet</title>
<polygon fill="none" stroke="#000000" points="653.9063,-252 437.498,-252 437.498,-216 653.9063,-216 653.9063,-252"/>
<text text-anchor="middle" x="545.7021" y="-229.8" font-family="Times,serif" font-size="14.00" fill="#000000">azurerm_subnet.myterraformsubnet</text>
</g>
<!-- [root] azurerm_network_interface.myterraformnic&#45;&gt;[root] azurerm_subnet.myterraformsubnet -->
<g id="edge3" class="edge">
<title>[root] azurerm_network_interface.myterraformnic&#45;&gt;[root] azurerm_subnet.myterraformsubnet</title>
<path fill="none" stroke="#000000" d="M360.7119,-287.9243C395.0654,-277.9103 437.9414,-265.412 473.7633,-254.97"/>
<polygon fill="#000000" stroke="#000000" points="475.046,-258.2419 483.6669,-252.0831 473.087,-251.5216 475.046,-258.2419"/>
</g>
<!-- [root] azurerm_resource_group.myterraformgroup -->
<g id="node4" class="node">
<title>[root] azurerm_resource_group.myterraformgroup</title>
<polygon fill="none" stroke="#000000" points="542.0411,-108 279.3632,-108 279.3632,-72 542.0411,-72 542.0411,-108"/>
<text text-anchor="middle" x="410.7021" y="-85.8" font-family="Times,serif" font-size="14.00" fill="#000000">azurerm_resource_group.myterraformgroup</text>
</g>
<!-- [root] azurerm_network_security_group.myterraformnsg&#45;&gt;[root] azurerm_resource_group.myterraformgroup -->
<g id="edge4" class="edge">
<title>[root] azurerm_network_security_group.myterraformnsg&#45;&gt;[root] azurerm_resource_group.myterraformgroup</title>
<path fill="none" stroke="#000000" d="M215.2266,-143.9243C251.6825,-133.8675 297.2209,-121.3052 335.1707,-110.8363"/>
<polygon fill="#000000" stroke="#000000" points="336.4416,-114.1165 345.1508,-108.0831 334.5801,-107.3685 336.4416,-114.1165"/>
</g>
<!-- [root] azurerm_public_ip.myterraformpublicip&#45;&gt;[root] azurerm_resource_group.myterraformgroup -->
<g id="edge5" class="edge">
<title>[root] azurerm_public_ip.myterraformpublicip&#45;&gt;[root] azurerm_resource_group.myterraformgroup</title>
<path fill="none" stroke="#000000" d="M305.9183,-215.8835C314.0563,-196.7948 328.5534,-166.4452 346.7021,-144 355.4429,-133.1899 366.5836,-122.9212 377.1116,-114.2977"/>
<polygon fill="#000000" stroke="#000000" points="379.3362,-117.0005 384.9931,-108.0423 374.9845,-111.5176 379.3362,-117.0005"/>
</g>
<!-- [root] provider.azurerm -->
<g id="node9" class="node">
<title>[root] provider.azurerm</title>
<polygon fill="none" stroke="#000000" points="410.7021,-36 310.5659,-18 410.7021,0 510.8384,-18 410.7021,-36"/>
<text text-anchor="middle" x="410.7021" y="-13.8" font-family="Times,serif" font-size="14.00" fill="#000000">provider.azurerm</text>
</g>
<!-- [root] azurerm_resource_group.myterraformgroup&#45;&gt;[root] provider.azurerm -->
<g id="edge6" class="edge">
<title>[root] azurerm_resource_group.myterraformgroup&#45;&gt;[root] provider.azurerm</title>
<path fill="none" stroke="#000000" d="M410.7021,-71.8314C410.7021,-64.131 410.7021,-54.9743 410.7021,-46.4166"/>
<polygon fill="#000000" stroke="#000000" points="414.2022,-46.4132 410.7021,-36.4133 407.2022,-46.4133 414.2022,-46.4132"/>
</g>
<!-- [root] azurerm_storage_account.mystorageaccount -->
<g id="node5" class="node">
<title>[root] azurerm_storage_account.mystorageaccount</title>
<polygon fill="none" stroke="#000000" points="726.3653,-324 461.039,-324 461.039,-288 726.3653,-288 726.3653,-324"/>
<text text-anchor="middle" x="593.7021" y="-301.8" font-family="Times,serif" font-size="14.00" fill="#000000">azurerm_storage_account.mystorageaccount</text>
</g>
<!-- [root] random_id.randomId -->
<g id="node11" class="node">
<title>[root] random_id.randomId</title>
<polygon fill="none" stroke="#000000" points="816.7858,-252 682.6185,-252 682.6185,-216 816.7858,-216 816.7858,-252"/>
<text text-anchor="middle" x="749.7021" y="-229.8" font-family="Times,serif" font-size="14.00" fill="#000000">random_id.randomId</text>
</g>
<!-- [root] azurerm_storage_account.mystorageaccount&#45;&gt;[root] random_id.randomId -->
<g id="edge7" class="edge">
<title>[root] azurerm_storage_account.mystorageaccount&#45;&gt;[root] random_id.randomId</title>
<path fill="none" stroke="#000000" d="M633.0675,-287.8314C653.8389,-278.2446 679.5005,-266.4008 701.4602,-256.2655"/>
<polygon fill="#000000" stroke="#000000" points="703.007,-259.4065 710.6198,-252.038 700.0735,-253.0508 703.007,-259.4065"/>
</g>
<!-- [root] azurerm_virtual_network.myterraformnetwork -->
<g id="node8" class="node">
<title>[root] azurerm_virtual_network.myterraformnetwork</title>
<polygon fill="none" stroke="#000000" points="634.0999,-180 355.3044,-180 355.3044,-144 634.0999,-144 634.0999,-180"/>
<text text-anchor="middle" x="494.7021" y="-157.8" font-family="Times,serif" font-size="14.00" fill="#000000">azurerm_virtual_network.myterraformnetwork</text>
</g>
<!-- [root] azurerm_subnet.myterraformsubnet&#45;&gt;[root] azurerm_virtual_network.myterraformnetwork -->
<g id="edge8" class="edge">
<title>[root] azurerm_subnet.myterraformsubnet&#45;&gt;[root] azurerm_virtual_network.myterraformnetwork</title>
<path fill="none" stroke="#000000" d="M532.8327,-215.8314C527.0186,-207.6232 520.0325,-197.7606 513.6375,-188.7323"/>
<polygon fill="#000000" stroke="#000000" points="516.3812,-186.5505 507.7449,-180.4133 510.669,-190.5966 516.3812,-186.5505"/>
</g>
<!-- [root] azurerm_virtual_machine.myterraformvm -->
<g id="node7" class="node">
<title>[root] azurerm_virtual_machine.myterraformvm</title>
<polygon fill="none" stroke="#000000" points="424.6582,-396 172.7461,-396 172.7461,-360 424.6582,-360 424.6582,-396"/>
<text text-anchor="middle" x="298.7021" y="-373.8" font-family="Times,serif" font-size="14.00" fill="#000000">azurerm_virtual_machine.myterraformvm</text>
</g>
<!-- [root] azurerm_virtual_machine.myterraformvm&#45;&gt;[root] azurerm_network_interface.myterraformnic -->
<g id="edge9" class="edge">
<title>[root] azurerm_virtual_machine.myterraformvm&#45;&gt;[root] azurerm_network_interface.myterraformnic</title>
<path fill="none" stroke="#000000" d="M298.7021,-359.8314C298.7021,-352.131 298.7021,-342.9743 298.7021,-334.4166"/>
<polygon fill="#000000" stroke="#000000" points="302.2022,-334.4132 298.7021,-324.4133 295.2022,-334.4133 302.2022,-334.4132"/>
</g>
<!-- [root] azurerm_virtual_machine.myterraformvm&#45;&gt;[root] azurerm_storage_account.mystorageaccount -->
<g id="edge10" class="edge">
<title>[root] azurerm_virtual_machine.myterraformvm&#45;&gt;[root] azurerm_storage_account.mystorageaccount</title>
<path fill="none" stroke="#000000" d="M372.7623,-359.9243C414.4848,-349.7412 466.7325,-336.9892 509.9434,-326.4428"/>
<polygon fill="#000000" stroke="#000000" points="510.9825,-329.792 519.8674,-324.0207 509.3227,-322.9916 510.9825,-329.792"/>
</g>
<!-- [root] azurerm_virtual_network.myterraformnetwork&#45;&gt;[root] azurerm_resource_group.myterraformgroup -->
<g id="edge11" class="edge">
<title>[root] azurerm_virtual_network.myterraformnetwork&#45;&gt;[root] azurerm_resource_group.myterraformgroup</title>
<path fill="none" stroke="#000000" d="M473.5054,-143.8314C463.2587,-135.0485 450.8019,-124.3712 439.6925,-114.8489"/>
<polygon fill="#000000" stroke="#000000" points="441.7625,-112.0134 431.8921,-108.1628 437.2069,-117.3282 441.7625,-112.0134"/>
</g>
<!-- [root] provider.random -->
<g id="node10" class="node">
<title>[root] provider.random</title>
<polygon fill="none" stroke="#000000" points="786.7021,-180 689.586,-162 786.7021,-144 883.8183,-162 786.7021,-180"/>
<text text-anchor="middle" x="786.7021" y="-157.8" font-family="Times,serif" font-size="14.00" fill="#000000">provider.random</text>
</g>
<!-- [root] random_id.randomId&#45;&gt;[root] azurerm_resource_group.myterraformgroup -->
<g id="edge16" class="edge">
<title>[root] random_id.randomId&#45;&gt;[root] azurerm_resource_group.myterraformgroup</title>
<path fill="none" stroke="#000000" d="M725.3054,-215.8012C711.8954,-205.5772 695.1069,-192.4117 680.7021,-180 663.0777,-164.8141 663.1903,-155.0213 642.7021,-144 614.9331,-129.0621 583.1247,-118.2321 552.1467,-110.3882"/>
<polygon fill="#000000" stroke="#000000" points="552.6687,-106.913 542.1242,-107.9449 551.0108,-113.7138 552.6687,-106.913"/>
</g>
<!-- [root] random_id.randomId&#45;&gt;[root] provider.random -->
<g id="edge17" class="edge">
<title>[root] random_id.randomId&#45;&gt;[root] provider.random</title>
<path fill="none" stroke="#000000" d="M759.0388,-215.8314C763.4703,-207.2079 768.8402,-196.7583 773.6655,-187.3687"/>
<polygon fill="#000000" stroke="#000000" points="776.7965,-188.9334 778.2542,-178.4393 770.5704,-185.7338 776.7965,-188.9334"/>
</g>
<!-- [root] meta.count&#45;boundary (count boundary fixup) -->
<g id="node12" class="node">
<title>[root] meta.count&#45;boundary (count boundary fixup)</title>
<ellipse fill="none" stroke="#000000" cx="540.7021" cy="-450" rx="191.6931" ry="18"/>
<text text-anchor="middle" x="540.7021" y="-445.8" font-family="Times,serif" font-size="14.00" fill="#000000">[root] meta.count&#45;boundary (count boundary fixup)</text>
</g>
<!-- [root] meta.count&#45;boundary (count boundary fixup)&#45;&gt;[root] azurerm_virtual_machine.myterraformvm -->
<g id="edge12" class="edge">
<title>[root] meta.count&#45;boundary (count boundary fixup)&#45;&gt;[root] azurerm_virtual_machine.myterraformvm</title>
<path fill="none" stroke="#000000" d="M482.7371,-432.7542C448.7385,-422.6389 405.528,-409.7829 369.5221,-399.0704"/>
<polygon fill="#000000" stroke="#000000" points="370.1541,-395.6069 359.5712,-396.1098 368.1579,-402.3162 370.1541,-395.6069"/>
</g>
<!-- [root] var.resourcename -->
<g id="node13" class="node">
<title>[root] var.resourcename</title>
<ellipse fill="none" stroke="#000000" cx="537.7021" cy="-378" rx="94.6464" ry="18"/>
<text text-anchor="middle" x="537.7021" y="-373.8" font-family="Times,serif" font-size="14.00" fill="#000000">[root] var.resourcename</text>
</g>
<!-- [root] meta.count&#45;boundary (count boundary fixup)&#45;&gt;[root] var.resourcename -->
<g id="edge13" class="edge">
<title>[root] meta.count&#45;boundary (count boundary fixup)&#45;&gt;[root] var.resourcename</title>
<path fill="none" stroke="#000000" d="M539.9451,-431.8314C539.6243,-424.131 539.2427,-414.9743 538.8862,-406.4166"/>
<polygon fill="#000000" stroke="#000000" points="542.3827,-406.2589 538.4694,-396.4133 535.3888,-406.5503 542.3827,-406.2589"/>
</g>
<!-- [root] provider.azurerm (close) -->
<g id="node14" class="node">
<title>[root] provider.azurerm (close)</title>
<ellipse fill="none" stroke="#000000" cx="211.7021" cy="-450" rx="119.2527" ry="18"/>
<text text-anchor="middle" x="211.7021" y="-445.8" font-family="Times,serif" font-size="14.00" fill="#000000">[root] provider.azurerm (close)</text>
</g>
<!-- [root] provider.azurerm (close)&#45;&gt;[root] azurerm_virtual_machine.myterraformvm -->
<g id="edge14" class="edge">
<title>[root] provider.azurerm (close)&#45;&gt;[root] azurerm_virtual_machine.myterraformvm</title>
<path fill="none" stroke="#000000" d="M233.2078,-432.2022C244.0011,-423.2698 257.2461,-412.3085 268.9941,-402.586"/>
<polygon fill="#000000" stroke="#000000" points="271.3672,-405.1652 276.8396,-396.0931 266.9042,-399.7724 271.3672,-405.1652"/>
</g>
<!-- [root] provider.random (close) -->
<g id="node15" class="node">
<title>[root] provider.random (close)</title>
<ellipse fill="none" stroke="#000000" cx="767.7021" cy="-378" rx="117.3491" ry="18"/>
<text text-anchor="middle" x="767.7021" y="-373.8" font-family="Times,serif" font-size="14.00" fill="#000000">[root] provider.random (close)</text>
</g>
<!-- [root] provider.random (close)&#45;&gt;[root] random_id.randomId -->
<g id="edge15" class="edge">
<title>[root] provider.random (close)&#45;&gt;[root] random_id.randomId</title>
<path fill="none" stroke="#000000" d="M765.4224,-359.7623C762.3523,-335.201 756.8581,-291.2474 753.2464,-262.3541"/>
<polygon fill="#000000" stroke="#000000" points="756.6768,-261.5782 751.9634,-252.0896 749.7308,-262.4465 756.6768,-261.5782"/>
</g>
<!-- [root] root -->
<g id="node16" class="node">
<title>[root] root</title>
<ellipse fill="none" stroke="#000000" cx="540.7021" cy="-522" rx="46.8976" ry="18"/>
<text text-anchor="middle" x="540.7021" y="-517.8" font-family="Times,serif" font-size="14.00" fill="#000000">[root] root</text>
</g>
<!-- [root] root&#45;&gt;[root] meta.count&#45;boundary (count boundary fixup) -->
<g id="edge18" class="edge">
<title>[root] root&#45;&gt;[root] meta.count&#45;boundary (count boundary fixup)</title>
<path fill="none" stroke="#000000" d="M540.7021,-503.8314C540.7021,-496.131 540.7021,-486.9743 540.7021,-478.4166"/>
<polygon fill="#000000" stroke="#000000" points="544.2022,-478.4132 540.7021,-468.4133 537.2022,-478.4133 544.2022,-478.4132"/>
</g>
<!-- [root] root&#45;&gt;[root] provider.azurerm (close) -->
<g id="edge19" class="edge">
<title>[root] root&#45;&gt;[root] provider.azurerm (close)</title>
<path fill="none" stroke="#000000" d="M500.0303,-513.0992C447.7015,-501.6473 355.6919,-481.5114 289.6741,-467.0638"/>
<polygon fill="#000000" stroke="#000000" points="290.2386,-463.6045 279.7215,-464.8857 288.742,-470.4427 290.2386,-463.6045"/>
</g>
<!-- [root] root&#45;&gt;[root] provider.random (close) -->
<g id="edge20" class="edge">
<title>[root] root&#45;&gt;[root] provider.random (close)</title>
<path fill="none" stroke="#000000" d="M584.2594,-515.4038C636.413,-506.6603 719.5238,-489.7658 741.7021,-468 758.134,-451.8738 764.3434,-426.0628 766.6113,-406.2086"/>
<polygon fill="#000000" stroke="#000000" points="770.1044,-406.4387 767.4886,-396.1719 763.131,-405.8291 770.1044,-406.4387"/>
</g>
</g>
</svg>
